<svg width="401" height="401" viewBox="0 0 401 401" fill="none" xmlns="http://www.w3.org/2000/svg">
<circle cx="200.329" cy="200.76" r="196" fill="#E3F3E9" stroke="black" stroke-width="8"/>
<path d="M293.326 254.453C312.984 281.245 323.136 300.014 337.199 331.106C338.649 334.312 337.819 338.097 335.165 340.408L318.358 355.046C314.384 358.507 308.208 357.248 305.907 352.508L236.96 210.486C234.524 205.469 237.84 199.563 243.391 199.029L298.541 193.726C304.532 193.15 306.762 201.374 301.301 203.903C296.483 206.135 297.51 213.266 302.763 214.047L307.207 214.707C312.554 215.502 314.801 221.981 311.094 225.916L293.927 244.14C291.258 246.973 291.024 251.315 293.326 254.453Z" fill="black" fill-opacity="0.1"/>
<path d="M332.296 190.999C332.296 190.999 293.586 157.267 276.044 155.974C274.845 155.885 273.433 156.769 272.147 157.192C254.63 162.958 230.251 212.787 230.251 212.787C231.342 212.68 232.419 212.571 233.484 212.461C271.501 208.535 293.671 203.165 332.296 190.999Z" fill="#FD9D6A"/>
<path d="M268.93 175.928L262.723 170.341L268.848 161.795C268.848 161.795 237.889 163.789 219.534 159.793C201.178 155.797 191.924 174.573 193.527 184.641C195.129 194.708 204.087 203.159 212.783 205.14C221.48 207.121 221.48 213.795 221.48 213.795C225.296 230.581 226.094 240.669 221.48 261.668C241.014 269.527 254.435 270.703 280.725 269.665L268.93 250.421C268.046 250.235 267.186 250.039 266.349 249.832C250.519 245.913 242.764 237.845 232.926 213.795C233.112 213.345 233.298 212.9 233.484 212.461C241.988 192.301 249.147 183.235 268.93 175.928Z" fill="black"/>
<path d="M108.637 139.826L88.0582 97.6315L101.534 133.77L108.637 139.826Z" fill="black"/>
<path d="M111.778 115.195L93.4826 65.3159L104.469 109.369L111.778 115.195Z" fill="black"/>
<path d="M80.3098 264.486C67.3515 281.155 36.625 301.136 36.625 301.136C44.5394 314.016 53.9314 325.891 64.5648 336.524C83.1984 304.799 97.6317 284.52 120.139 259.57L110.997 261.625C105.171 262.934 100.022 257.647 101.534 251.869C105.475 236.812 112.002 212.406 115.486 202.329C120.694 187.264 99.5069 148.264 99.5069 148.264C103.396 163 107.465 183.124 105.924 198.622C103.192 226.085 97.2476 242.697 80.3098 264.486Z" fill="black"/>
<path d="M200.329 392.76C246.18 392.76 288.276 376.688 321.293 349.871C309.313 320.157 298.662 298.646 280.725 269.665C254.435 270.703 241.014 269.527 221.48 261.668C226.094 240.669 225.296 230.581 221.48 213.795C221.48 213.795 221.48 207.121 212.783 205.14C204.087 203.159 195.129 194.708 193.527 184.641C191.924 174.573 201.178 155.797 219.534 159.793C237.889 163.789 268.848 161.795 268.848 161.795L272.147 157.192L274.973 153.25C274.973 153.25 256.606 126.684 219.534 117.902C182.461 109.121 93.4826 65.3159 93.4826 65.3159L111.778 115.195L104.469 109.369L88.0582 97.6315L108.637 139.826L101.534 133.77L85.2979 120.864C85.2979 120.864 96.4387 136.639 99.5069 148.264C99.5069 148.264 120.694 187.264 115.486 202.329C112.002 212.406 105.475 236.812 101.534 251.869C100.022 257.647 105.171 262.934 110.997 261.625L120.139 259.57C97.6317 284.52 83.1984 304.799 64.5648 336.524C73.4804 345.44 83.2688 353.483 93.7907 360.514C124.274 380.883 160.915 392.76 200.329 392.76Z" fill="#F5351E"/>
<path d="M266.349 249.832L296.138 223.2C271.414 222.311 257.553 220.424 232.926 213.795C242.764 237.845 250.519 245.913 266.349 249.832Z" fill="#FD9D6A"/>
<path d="M296.138 223.2C297.203 221.97 287.239 220.599 276.044 218.553C267.874 217.059 259.049 215.206 253.377 212.787C264.138 210.992 273.633 209.107 281.973 207.22C311.953 200.44 327 193.65 332.296 190.999C293.671 203.165 271.501 208.535 233.484 212.461C233.298 212.9 233.112 213.345 232.926 213.795C257.553 220.424 271.414 222.311 296.138 223.2Z" fill="black"/>
<path d="M253.377 212.787C259.049 215.206 267.874 217.059 276.044 218.553C271.03 213.719 271.927 211.213 281.973 207.22C273.633 209.107 264.138 210.992 253.377 212.787Z" fill="black"/>
<path d="M332.296 190.999L333.191 192.787C333.787 192.489 334.196 191.912 334.28 191.251C334.364 190.589 334.112 189.929 333.609 189.491L332.296 190.999ZM276.044 155.974L275.897 157.968H275.897L276.044 155.974ZM230.251 212.787L228.455 211.908C228.172 212.486 228.184 213.164 228.488 213.731L230.251 212.787ZM254.947 258.953L253.184 259.896C253.464 260.42 253.963 260.793 254.545 260.912C255.127 261.032 255.733 260.886 256.197 260.515L254.947 258.953ZM296.138 223.2L297.471 224.691C297.535 224.634 297.595 224.573 297.65 224.509L296.138 223.2ZM253.377 212.787L253.047 210.815C252.171 210.961 251.496 211.668 251.391 212.55C251.285 213.432 251.775 214.278 252.592 214.627L253.377 212.787ZM36.625 301.136L35.5347 299.459C34.6254 300.05 34.3531 301.259 34.921 302.183L36.625 301.136ZM80.3098 264.486L78.7308 263.258L80.3098 264.486ZM105.924 198.622L107.914 198.82L105.924 198.622ZM85.2979 120.864L86.5423 119.299C85.7633 118.68 84.6476 118.727 83.9243 119.411C83.201 120.094 83.0902 121.205 83.6642 122.018L85.2979 120.864ZM108.637 139.826L107.339 141.348C108.06 141.963 109.113 141.987 109.862 141.407C110.611 140.827 110.85 139.801 110.434 138.949L108.637 139.826ZM88.0582 97.6315L89.2217 96.0047C88.5064 95.4931 87.5407 95.5088 86.8424 96.0435C86.1441 96.5781 85.877 97.5062 86.1843 98.3303L88.0582 97.6315ZM111.778 115.195L110.531 116.759C111.233 117.318 112.22 117.342 112.948 116.817C113.675 116.293 113.965 115.348 113.656 114.506L111.778 115.195ZM93.4826 65.3159L94.366 63.5216C93.6675 63.1777 92.8328 63.2704 92.2268 63.7593C91.6208 64.2482 91.3537 65.0444 91.5421 65.7999L93.4826 65.3159ZM274.973 153.25L276.599 154.415C277.091 153.728 277.099 152.807 276.618 152.112L274.973 153.25ZM262.723 170.341L261.097 169.176C260.504 170.004 260.627 171.146 261.385 171.828L262.723 170.341ZM268.93 175.928L269.623 177.804C270.28 177.562 270.763 176.993 270.895 176.305C271.027 175.617 270.789 174.91 270.268 174.442L268.93 175.928ZM232.926 213.795L231.078 213.029C230.876 213.516 230.875 214.064 231.075 214.552L232.926 213.795ZM268.93 250.421L270.636 249.376C270.348 248.907 269.88 248.577 269.342 248.464L268.93 250.421ZM321.293 349.871L322.554 351.424C323.235 350.87 323.476 349.938 323.148 349.124L321.293 349.871ZM120.139 259.57L121.624 260.91C122.208 260.263 122.306 259.313 121.866 258.561C121.426 257.809 120.551 257.428 119.701 257.619L120.139 259.57ZM115.486 202.329L113.595 201.676L115.486 202.329ZM221.48 213.795H219.48C219.48 213.944 219.497 214.093 219.53 214.239L221.48 213.795ZM221.48 261.668L219.527 261.239C219.317 262.193 219.827 263.159 220.734 263.524L221.48 261.668ZM93.7907 360.514L94.9019 358.851L93.7907 360.514ZM110.997 261.625L110.559 259.674L110.997 261.625ZM101.534 251.869L99.5992 251.363L101.534 251.869ZM276.044 218.553L275.685 220.52L276.044 218.553ZM332.296 190.999C333.609 189.491 333.609 189.491 333.609 189.49C333.608 189.49 333.608 189.49 333.607 189.489C333.606 189.488 333.604 189.486 333.601 189.484C333.596 189.479 333.589 189.473 333.579 189.464C333.559 189.448 333.531 189.423 333.493 189.39C333.417 189.325 333.306 189.228 333.16 189.103C332.869 188.853 332.441 188.486 331.89 188.02C330.789 187.089 329.199 185.758 327.237 184.158C323.314 180.96 317.896 176.678 311.921 172.351C305.952 168.03 299.394 163.639 293.196 160.239C287.067 156.876 281.035 154.336 276.191 153.979L275.897 157.968C279.824 158.258 285.21 160.42 291.272 163.746C297.266 167.034 303.674 171.318 309.575 175.591C315.47 179.86 320.826 184.092 324.709 187.258C326.65 188.841 328.221 190.156 329.306 191.074C329.848 191.533 330.269 191.892 330.553 192.136C330.695 192.259 330.803 192.352 330.875 192.414C330.911 192.445 330.938 192.469 330.956 192.484C330.965 192.492 330.971 192.498 330.976 192.502C330.978 192.504 330.979 192.505 330.98 192.506C330.981 192.506 330.981 192.506 330.981 192.507C330.982 192.507 330.982 192.507 332.296 190.999ZM228.488 213.731L253.184 259.896L256.711 258.01L232.015 211.844L228.488 213.731ZM36.625 301.136C37.7153 302.813 37.7156 302.812 37.716 302.812C37.7162 302.812 37.7167 302.812 37.7173 302.811C37.7185 302.81 37.7201 302.809 37.7221 302.808C37.7263 302.805 37.7323 302.801 37.7401 302.796C37.7558 302.786 37.7788 302.771 37.8089 302.751C37.8691 302.712 37.958 302.654 38.0739 302.577C38.3057 302.425 38.6458 302.199 39.0825 301.907C39.9558 301.323 41.2155 300.471 42.7666 299.398C45.8679 297.252 50.139 294.215 54.8193 290.653C64.1333 283.565 75.2374 274.27 81.8888 265.713L78.7308 263.258C72.4239 271.372 61.6856 280.401 52.3968 287.47C47.7756 290.987 43.5552 293.988 40.4904 296.109C38.9584 297.169 37.7163 298.009 36.8587 298.582C36.4299 298.869 36.0972 299.089 35.8726 299.237C35.7603 299.312 35.675 299.367 35.6182 299.405C35.5898 299.423 35.5685 299.437 35.5545 299.446C35.5475 299.451 35.5424 299.454 35.5391 299.456C35.5374 299.457 35.5362 299.458 35.5355 299.459C35.5351 299.459 35.5349 299.459 35.5347 299.459C35.5347 299.459 35.5347 299.459 36.625 301.136ZM81.8888 265.713C90.4431 254.709 96.2784 244.937 100.312 234.396C104.343 223.862 106.538 212.652 107.914 198.82L103.933 198.424C102.577 212.055 100.435 222.882 96.5759 232.967C92.7198 243.045 87.1143 252.474 78.7308 263.258L81.8888 265.713ZM110.434 138.949L89.8558 96.7548L86.2606 98.5082L106.839 140.703L110.434 138.949ZM113.656 114.506L95.3603 64.6272L91.605 66.0046L109.9 115.884L113.656 114.506ZM93.4826 65.3159C92.5993 67.1103 92.5997 67.1105 92.6004 67.1108C92.6011 67.1112 92.6022 67.1117 92.6036 67.1124C92.6064 67.1138 92.6106 67.1158 92.6161 67.1185C92.6271 67.1239 92.6435 67.132 92.6651 67.1426C92.7084 67.1639 92.773 67.1956 92.8581 67.2374C93.0285 67.321 93.2814 67.4449 93.6127 67.6068C94.2752 67.9307 95.251 68.4065 96.5057 69.0149C99.0151 70.2317 102.64 71.9793 107.106 74.1037C116.036 78.3521 128.331 84.1088 141.788 90.1411C168.633 102.175 200.32 115.407 219.073 119.849L219.995 115.956C201.675 111.617 170.336 98.555 143.424 86.491C130.002 80.4744 117.736 74.7311 108.824 70.4916C104.369 68.372 100.753 66.6288 98.251 65.4157C97.0003 64.8092 96.0282 64.3353 95.3693 64.0132C95.0398 63.8521 94.7886 63.729 94.6199 63.6463C94.5356 63.6049 94.4719 63.5736 94.4294 63.5528C94.4082 63.5423 94.3922 63.5345 94.3816 63.5293C94.3763 63.5267 94.3724 63.5247 94.3698 63.5234C94.3685 63.5228 94.3675 63.5223 94.3669 63.522C94.3663 63.5217 94.366 63.5216 93.4826 65.3159ZM219.073 119.849C237.236 124.151 250.822 132.811 259.87 140.401C264.393 144.196 267.775 147.717 270.019 150.279C271.141 151.56 271.978 152.6 272.529 153.314C272.805 153.671 273.009 153.946 273.142 154.128C273.209 154.219 273.258 154.288 273.289 154.331C273.304 154.353 273.315 154.369 273.322 154.378C273.325 154.383 273.327 154.386 273.328 154.387C273.329 154.388 273.329 154.388 273.329 154.388C273.329 154.388 273.329 154.388 273.329 154.388C273.328 154.388 273.328 154.387 274.973 153.25C276.618 152.112 276.618 152.111 276.617 152.111C276.617 152.11 276.616 152.109 276.616 152.108C276.615 152.107 276.613 152.105 276.611 152.102C276.608 152.097 276.603 152.091 276.598 152.083C276.586 152.066 276.57 152.044 276.55 152.015C276.509 151.958 276.45 151.876 276.373 151.77C276.219 151.559 275.993 151.255 275.694 150.868C275.096 150.094 274.208 148.991 273.029 147.644C270.67 144.951 267.144 141.282 262.441 137.337C253.038 129.449 238.904 120.435 219.995 115.956L219.073 119.849ZM261.385 171.828L267.592 177.415L270.268 174.442L264.061 168.855L261.385 171.828ZM267.225 251.466L279.02 270.71L282.43 268.62L270.636 249.376L267.225 251.466ZM279.024 270.717C296.898 299.597 307.498 321.005 319.438 350.619L323.148 349.124C311.127 319.309 300.425 297.696 282.426 268.612L279.024 270.717ZM66.2893 337.537C84.8664 305.908 99.2221 285.743 121.624 260.91L118.654 258.231C96.0414 283.298 81.5304 303.69 62.8403 335.512L66.2893 337.537ZM119.701 257.619L110.559 259.674L111.436 263.576L120.578 261.522L119.701 257.619ZM103.469 252.376C107.418 237.286 113.923 212.969 117.376 202.983L113.595 201.676C110.08 211.843 103.531 236.338 99.5992 251.363L103.469 252.376ZM107.914 198.82C109.494 182.935 105.335 162.508 101.441 147.754L97.5731 148.775C101.457 163.492 105.437 183.312 103.933 198.424L107.914 198.82ZM101.441 147.754C99.8328 141.662 96.1603 134.615 92.9765 129.192C91.3711 126.458 89.8638 124.093 88.7574 122.412C88.2039 121.57 87.75 120.899 87.4332 120.436C87.2749 120.204 87.1507 120.025 87.0655 119.902C87.023 119.841 86.9901 119.794 86.9676 119.762C86.9563 119.746 86.9476 119.733 86.9416 119.725C86.9386 119.721 86.9362 119.717 86.9345 119.715C86.9337 119.714 86.933 119.713 86.9325 119.712C86.9323 119.712 86.932 119.711 86.9319 119.711C86.9317 119.711 86.9315 119.711 85.2979 120.864C83.6642 122.018 83.6641 122.018 83.6641 122.018C83.6641 122.018 83.6641 122.018 83.6642 122.018C83.6644 122.018 83.6648 122.019 83.6653 122.02C83.6663 122.021 83.668 122.023 83.6703 122.027C83.675 122.034 83.6824 122.044 83.6923 122.058C83.7121 122.086 83.7422 122.129 83.7819 122.187C83.8614 122.301 83.9797 122.472 84.1319 122.694C84.4364 123.139 84.8768 123.791 85.4157 124.61C86.4941 126.249 87.9638 128.555 89.5271 131.217C92.6807 136.588 96.1128 143.241 97.5731 148.775L101.441 147.754ZM117.376 202.983C118.867 198.669 118.41 192.946 117.141 187.102C115.854 181.175 113.65 174.773 111.307 168.906C108.96 163.029 106.452 157.635 104.532 153.714C103.572 151.752 102.757 150.156 102.182 149.048C101.894 148.493 101.666 148.061 101.509 147.767C101.431 147.619 101.37 147.506 101.329 147.429C101.308 147.391 101.292 147.362 101.282 147.341C101.276 147.331 101.272 147.324 101.269 147.318C101.268 147.316 101.267 147.314 101.266 147.312C101.265 147.311 101.265 147.311 101.265 147.31C101.265 147.31 101.264 147.309 99.5069 148.264C97.7495 149.219 97.7494 149.219 97.7495 149.219C97.7496 149.219 97.7497 149.219 97.75 149.22C97.7504 149.221 97.7512 149.222 97.7524 149.224C97.7546 149.228 97.7581 149.235 97.7628 149.244C97.7723 149.261 97.7868 149.288 97.8061 149.324C97.8446 149.395 97.9024 149.503 97.9779 149.645C98.1289 149.929 98.3509 150.349 98.6322 150.891C99.195 151.975 99.9951 153.543 100.94 155.473C102.83 159.335 105.293 164.633 107.592 170.389C109.895 176.155 112.011 182.328 113.232 187.95C114.47 193.655 114.708 198.457 113.595 201.676L117.376 202.983ZM267.222 160.63L261.097 169.176L264.348 171.506L270.473 162.961L267.222 160.63ZM268.848 161.795C268.719 159.8 268.719 159.8 268.719 159.8C268.719 159.8 268.719 159.8 268.719 159.8C268.718 159.8 268.717 159.8 268.715 159.8C268.712 159.8 268.707 159.8 268.7 159.801C268.685 159.802 268.664 159.803 268.635 159.805C268.578 159.808 268.492 159.814 268.378 159.82C268.151 159.834 267.813 159.853 267.376 159.876C266.502 159.922 265.23 159.984 263.646 160.046C260.476 160.17 256.06 160.293 251.074 160.293C241.06 160.292 228.914 159.788 219.959 157.839L219.108 161.747C228.509 163.794 241.02 164.292 251.074 164.293C256.123 164.293 260.593 164.168 263.802 164.043C265.407 163.98 266.697 163.918 267.588 163.87C268.033 163.847 268.378 163.827 268.613 163.813C268.731 163.806 268.821 163.801 268.882 163.797C268.912 163.795 268.935 163.794 268.951 163.793C268.959 163.792 268.965 163.792 268.969 163.792C268.972 163.792 268.973 163.791 268.974 163.791C268.975 163.791 268.975 163.791 268.976 163.791C268.976 163.791 268.976 163.791 268.848 161.795ZM219.959 157.839C209.928 155.655 202.295 159.742 197.49 165.686C192.781 171.512 190.648 179.281 191.551 184.955L195.502 184.326C194.802 179.933 196.495 173.281 200.601 168.2C204.612 163.238 210.784 159.935 219.108 161.747L219.959 157.839ZM191.551 184.955C193.292 195.892 202.91 204.943 212.339 207.09L213.228 203.19C205.263 201.376 196.966 193.524 195.502 184.326L191.551 184.955ZM212.339 207.09C216.147 207.957 217.848 209.777 218.653 211.197C219.075 211.94 219.283 212.631 219.386 213.127C219.437 213.373 219.46 213.566 219.471 213.686C219.477 213.746 219.479 213.786 219.48 213.806C219.48 213.815 219.48 213.819 219.48 213.818C219.48 213.817 219.48 213.815 219.48 213.811C219.48 213.809 219.48 213.807 219.48 213.804C219.48 213.803 219.48 213.801 219.48 213.8C219.48 213.799 219.48 213.798 219.48 213.798C219.48 213.796 219.48 213.795 221.48 213.795C223.48 213.795 223.48 213.794 223.48 213.793C223.48 213.792 223.48 213.791 223.48 213.79C223.48 213.788 223.48 213.786 223.48 213.784C223.48 213.779 223.48 213.775 223.48 213.77C223.48 213.76 223.48 213.748 223.479 213.734C223.479 213.707 223.478 213.674 223.476 213.634C223.473 213.554 223.466 213.45 223.455 213.323C223.432 213.07 223.388 212.726 223.303 212.316C223.133 211.498 222.799 210.397 222.133 209.224C220.764 206.812 218.116 204.303 213.228 203.19L212.339 207.09ZM219.53 214.239C221.426 222.58 222.545 229.14 222.641 236.179C222.738 243.218 221.814 250.827 219.527 261.239L223.434 262.098C225.759 251.51 226.743 243.576 226.641 236.124C226.538 228.672 225.35 221.796 223.43 213.352L219.53 214.239ZM220.734 263.524C240.633 271.529 254.37 272.707 280.804 271.663L280.646 267.666C254.499 268.699 241.395 267.524 222.227 259.813L220.734 263.524ZM86.8947 99.2582L103.306 110.996L105.633 107.742L89.2217 96.0047L86.8947 99.2582ZM103.223 110.933L110.531 116.759L113.025 113.631L105.716 107.805L103.223 110.933ZM91.5421 65.7999L102.529 109.853L106.41 108.885L95.4232 64.832L91.5421 65.7999ZM84.0534 122.43L100.29 135.335L102.779 132.204L86.5423 119.299L84.0534 122.43ZM100.236 135.292L107.339 141.348L109.934 138.304L102.832 132.248L100.236 135.292ZM86.1843 98.3303L99.6601 134.468L103.408 133.071L89.9322 96.9327L86.1843 98.3303ZM63.1458 337.934C63.1651 337.953 63.1759 337.964 63.181 337.969C63.1822 337.97 63.1826 337.971 63.1823 337.971C63.1822 337.971 63.1817 337.97 63.1808 337.969C63.1801 337.968 63.178 337.966 63.1751 337.963C63.1736 337.962 63.1708 337.959 63.1673 337.955C63.1655 337.953 63.1628 337.95 63.1596 337.947C63.1582 337.946 63.1551 337.942 63.1535 337.941C63.1515 337.938 63.147 337.934 63.1445 337.931C63.1413 337.928 63.1341 337.92 63.13 337.915C63.1244 337.909 63.1108 337.894 63.1029 337.885C63.0903 337.87 63.0556 337.829 63.0339 337.801C62.9835 337.734 62.7424 337.287 62.633 336.876C63.3362 335.027 65.5284 334.793 65.7554 334.93C65.8101 334.97 65.8868 335.03 65.9099 335.05C65.923 335.061 65.9442 335.08 65.9524 335.087C65.9582 335.093 65.9681 335.102 65.9723 335.106C65.9755 335.109 65.9812 335.114 65.9837 335.116C65.9858 335.118 65.9895 335.122 65.9912 335.123C65.995 335.127 65.9982 335.13 66.0002 335.132C66.0043 335.136 66.0074 335.139 66.009 335.141C66.0122 335.144 66.0146 335.146 66.0153 335.147C66.017 335.149 66.0179 335.15 66.0174 335.149C66.0172 335.149 66.0166 335.148 66.0156 335.147C66.0135 335.145 66.0106 335.142 66.007 335.139C65.9997 335.131 65.9906 335.122 65.9812 335.113C65.9719 335.103 65.9627 335.094 65.9555 335.087C65.9519 335.083 65.949 335.08 65.9469 335.078C65.9459 335.077 65.9453 335.077 65.9451 335.076C65.9446 335.076 65.9456 335.077 65.9472 335.079C65.9479 335.079 65.9503 335.082 65.9534 335.085C65.9549 335.087 65.958 335.09 65.9619 335.094C65.9639 335.096 65.9669 335.099 65.9706 335.103C65.9722 335.105 65.9757 335.108 65.9777 335.11C65.98 335.113 65.9854 335.119 65.9884 335.122C65.9922 335.126 66.0013 335.136 66.0065 335.142C66.0139 335.15 66.0327 335.171 66.0439 335.184C66.0634 335.208 66.1238 335.285 66.1633 335.34C66.3006 335.569 66.0543 337.763 64.1989 338.454C63.7923 338.343 63.3492 338.101 63.2823 338.051C63.2551 338.029 63.2137 337.994 63.1993 337.982C63.1902 337.974 63.1751 337.96 63.169 337.954C63.1645 337.95 63.1567 337.943 63.1533 337.94C63.1506 337.937 63.1459 337.933 63.1437 337.931C63.142 337.929 63.1388 337.926 63.1373 337.925C63.1339 337.921 63.1311 337.919 63.1292 337.917C63.1256 337.913 63.1227 337.911 63.1213 337.909C63.1183 337.906 63.1161 337.904 63.1154 337.903C63.1145 337.903 63.1139 337.902 63.1138 337.902C63.1136 337.902 63.114 337.902 63.1152 337.903C63.1203 337.908 63.1312 337.919 63.1506 337.939L65.979 335.11C65.9597 335.091 65.9463 335.077 65.9381 335.069C65.9359 335.067 65.9336 335.065 65.9314 335.063C65.9303 335.062 65.9288 335.06 65.9272 335.059C65.9259 335.057 65.9231 335.054 65.9197 335.051C65.918 335.049 65.915 335.046 65.9112 335.043C65.9092 335.041 65.9064 335.038 65.9029 335.035C65.9014 335.033 65.8982 335.03 65.8964 335.029C65.8943 335.027 65.8895 335.022 65.8868 335.02C65.8834 335.016 65.8756 335.009 65.8711 335.005C65.865 334.999 65.8498 334.986 65.8408 334.978C65.8263 334.965 65.7849 334.93 65.7577 334.909C65.6908 334.858 65.2476 334.617 64.8411 334.506C62.9857 335.197 62.7394 337.391 62.8766 337.62C62.9161 337.675 62.9766 337.752 62.9961 337.775C63.0074 337.788 63.0261 337.809 63.0335 337.818C63.0387 337.823 63.0478 337.833 63.0517 337.838C63.0547 337.841 63.0601 337.847 63.0625 337.849C63.0644 337.851 63.068 337.855 63.0696 337.857C63.0733 337.861 63.0764 337.864 63.0784 337.866C63.0825 337.87 63.0857 337.874 63.0874 337.875C63.0909 337.879 63.0937 337.882 63.095 337.883C63.0979 337.886 63.1005 337.889 63.1021 337.89C63.1039 337.892 63.1057 337.894 63.1075 337.896C63.111 337.899 63.1151 337.903 63.1193 337.908C63.1278 337.916 63.138 337.926 63.148 337.936C63.158 337.946 63.1682 337.957 63.1767 337.965C63.1809 337.969 63.1849 337.973 63.1885 337.977C63.1903 337.979 63.1921 337.981 63.194 337.982C63.1955 337.984 63.1982 337.987 63.2011 337.99C63.2024 337.991 63.2053 337.994 63.2089 337.997C63.2106 337.999 63.2139 338.002 63.2181 338.006C63.2202 338.008 63.2234 338.011 63.2273 338.015C63.229 338.017 63.2328 338.02 63.2348 338.022C63.2374 338.025 63.2431 338.03 63.2463 338.033C63.2505 338.037 63.2604 338.046 63.2662 338.051C63.2744 338.059 63.2957 338.077 63.3088 338.089C63.3319 338.108 63.4086 338.169 63.4632 338.208C63.6903 338.346 65.8825 338.112 66.5857 336.263C66.4763 335.852 66.2352 335.405 66.1848 335.337C66.163 335.31 66.1284 335.268 66.1158 335.254C66.1078 335.245 66.0942 335.229 66.0886 335.223C66.0845 335.219 66.0773 335.211 66.0741 335.208C66.0716 335.205 66.0671 335.2 66.0651 335.198C66.0634 335.196 66.0603 335.193 66.0589 335.191C66.0556 335.188 66.0529 335.185 66.051 335.183C66.0473 335.179 66.0443 335.176 66.0427 335.175C66.0394 335.171 66.0367 335.168 66.0353 335.167C66.0338 335.165 66.0323 335.164 66.0312 335.163C66.029 335.161 66.0267 335.158 66.0246 335.156C66.0164 335.148 66.0031 335.134 65.9838 335.115L63.1458 337.934ZM34.921 302.183C42.9178 315.197 52.4072 327.195 63.1506 337.939L65.979 335.11C55.4556 324.587 46.1611 312.835 38.329 300.089L34.921 302.183ZM200.329 394.76C246.655 394.76 289.194 378.52 322.554 351.424L320.032 348.319C287.359 374.857 245.704 390.76 200.329 390.76V394.76ZM63.1506 337.939C72.1584 346.946 82.0482 355.073 92.6796 362.177L94.9019 358.851C84.4893 351.893 74.8024 343.934 65.979 335.11L63.1506 337.939ZM92.6796 362.177C123.482 382.759 160.507 394.76 200.329 394.76V390.76C161.322 390.76 125.067 379.008 94.9019 358.851L92.6796 362.177ZM110.559 259.674C106.179 260.658 102.34 256.689 103.469 252.376L99.5992 251.363C97.7041 258.604 104.162 265.211 111.436 263.576L110.559 259.674ZM294.806 221.709L265.016 248.341L267.682 251.323L297.471 224.691L294.806 221.709ZM265.868 251.773C266.73 251.987 267.614 252.188 268.519 252.378L269.342 248.464C268.479 248.282 267.642 248.092 266.829 247.89L265.868 251.773ZM273.348 152.084L270.522 156.027L273.773 158.357L276.599 154.415L273.348 152.084ZM272.773 159.092C273.464 158.864 274.421 158.426 274.864 158.251C275.499 158 275.785 157.96 275.897 157.968L276.191 153.979C275.104 153.899 274.085 154.257 273.392 154.532C272.507 154.882 272.116 155.097 271.522 155.292L272.773 159.092ZM270.522 156.027L267.222 160.63L270.473 162.961L273.773 158.357L270.522 156.027ZM271.522 155.292C266.589 156.916 261.477 161.486 256.699 167.002C251.856 172.593 247.105 179.457 242.937 186.088C238.763 192.726 235.145 199.177 232.572 203.965C231.285 206.36 230.258 208.341 229.551 209.726C229.198 210.419 228.925 210.962 228.74 211.333C228.647 211.519 228.576 211.662 228.529 211.758C228.505 211.807 228.486 211.844 228.474 211.869C228.468 211.881 228.463 211.891 228.46 211.898C228.458 211.901 228.457 211.904 228.456 211.905C228.456 211.906 228.455 211.907 228.455 211.907C228.455 211.908 228.455 211.908 230.251 212.787C232.048 213.666 232.048 213.666 232.048 213.666C232.048 213.666 232.048 213.665 232.048 213.665C232.049 213.664 232.05 213.662 232.051 213.659C232.054 213.653 232.058 213.645 232.064 213.634C232.075 213.611 232.092 213.576 232.115 213.53C232.16 213.438 232.229 213.3 232.319 213.119C232.499 212.758 232.767 212.225 233.114 211.544C233.81 210.181 234.824 208.225 236.096 205.858C238.641 201.123 242.213 194.756 246.323 188.216C250.44 181.668 255.068 174.994 259.723 169.621C264.442 164.172 268.947 160.351 272.773 159.092L271.522 155.292ZM231.075 214.552C236.017 226.633 240.525 234.94 245.929 240.728C251.402 246.59 257.676 249.745 265.868 251.773L266.829 247.891C259.191 246 253.673 243.162 248.852 237.998C243.961 232.759 239.673 225.007 234.777 213.038L231.075 214.552ZM256.197 260.515L267.598 251.394L265.099 248.27L253.698 257.391L256.197 260.515ZM232.406 215.726C257.19 222.397 271.201 224.305 296.067 225.198L296.21 221.201C271.626 220.318 257.917 218.45 233.445 211.864L232.406 215.726ZM331.695 189.091C293.16 201.229 271.126 206.563 233.278 210.471L233.689 214.45C271.875 210.507 294.182 205.1 332.896 192.907L331.695 189.091ZM231.641 211.683C231.454 212.127 231.267 212.575 231.078 213.029L234.773 214.562C234.958 214.115 235.143 213.674 235.327 213.238L231.641 211.683ZM268.237 174.052C258.158 177.775 251.119 182.012 245.516 188.009C239.943 193.973 235.917 201.546 231.641 211.683L235.327 213.238C239.554 203.216 243.36 196.176 248.438 190.74C253.486 185.338 259.919 181.389 269.623 177.804L268.237 174.052ZM230.448 214.778C231.541 214.67 232.621 214.56 233.689 214.45L233.278 210.471C232.216 210.581 231.142 210.69 230.054 210.797L230.448 214.778ZM297.65 224.509C298.022 224.08 298.35 223.378 298.164 222.537C298.008 221.828 297.559 221.392 297.315 221.19C296.824 220.784 296.179 220.527 295.679 220.354C294.576 219.97 292.959 219.597 291.081 219.221C287.311 218.467 281.929 217.595 276.404 216.585L275.685 220.52C281.354 221.556 286.551 222.394 290.296 223.144C292.176 223.52 293.55 223.848 294.366 224.132C294.825 224.292 294.871 224.36 294.765 224.272C294.713 224.229 294.38 223.951 294.258 223.398C294.107 222.713 294.389 222.165 294.627 221.89L297.65 224.509ZM276.404 216.585C268.2 215.086 259.595 213.265 254.161 210.948L252.592 214.627C258.503 217.148 267.548 219.033 275.685 220.52L276.404 216.585ZM331.4 189.211C326.26 191.784 311.368 198.522 281.531 205.27L282.414 209.171C312.539 202.358 327.74 195.517 333.191 192.787L331.4 189.211ZM281.531 205.27C273.231 207.147 263.773 209.025 253.047 210.815L253.706 214.76C264.503 212.959 274.036 211.066 282.414 209.171L281.531 205.27ZM277.432 217.113C276.225 215.949 275.555 215.089 275.249 214.446C274.992 213.904 275.051 213.665 275.155 213.456C275.332 213.097 275.843 212.503 277.151 211.699C278.423 210.917 280.238 210.062 282.711 209.079L281.234 205.362C278.684 206.375 276.62 207.33 275.056 208.292C273.527 209.232 272.244 210.315 271.567 211.686C270.818 213.206 270.965 214.75 271.636 216.162C272.259 217.473 273.356 218.739 274.656 219.992L277.432 217.113Z" fill="black"/>
<path d="M78.5571 349.027C96.9198 301.682 115.712 284.631 136.321 253.416C139.82 248.116 135.779 242.189 130.28 245.367C130.035 245.509 129.79 245.652 129.543 245.796C123.279 249.467 117.758 242.655 120.493 235.929C131.453 208.971 129.062 180.239 114.773 156.153C113.01 153.182 115.7 149.233 119.052 150.07C122.009 150.808 124.525 147.826 123.3 145.035L117.114 130.941C115.83 128.016 118.658 124.971 121.669 126.034C124.78 127.132 127.65 123.858 126.2 120.895C117.333 102.781 112.733 89.9462 109.022 72.4041L95.3656 66.3633L111.012 113.304L91.1963 103L109.022 137.554L91.1963 127.128L103.64 166.478L107.34 211.882L86.8241 271.412L58.2363 331.278L78.5571 349.027Z" fill="black" fill-opacity="0.1"/>
<path d="M218.348 172.044C218.348 183.092 209.393 192.048 198.348 192.048C187.302 192.048 178.348 183.092 178.348 172.044C178.348 160.996 187.302 152.041 198.348 152.041C209.393 152.041 218.348 160.996 218.348 172.044Z" fill="#F5351E"/>
<path d="M213.348 172.044C213.348 180.33 206.632 187.047 198.348 187.047C190.063 187.047 183.348 180.33 183.348 172.044C183.348 163.758 190.063 157.042 198.348 157.042C206.632 157.042 213.348 163.758 213.348 172.044Z" fill="black"/>
<path d="M208.348 167.043C208.348 169.805 206.109 172.044 203.348 172.044C200.586 172.044 198.348 169.805 198.348 167.043C198.348 164.281 200.586 162.042 203.348 162.042C206.109 162.042 208.348 164.281 208.348 167.043Z" fill="white"/>
</svg>
